<?xml version="1.0" standalone="no"?>
<!DOCTYPE svg PUBLIC "-//W3C//DTD SVG 20010904//EN"
 "http://www.w3.org/TR/2001/REC-SVG-20010904/DTD/svg10.dtd">
<svg version="1.0" xmlns="http://www.w3.org/2000/svg"
  viewBox="0 0 200.000000 200.000000"
 preserveAspectRatio="xMidYMid meet">

<g transform="translate(0.000000,200.000000) scale(0.100000,-0.100000)"
fill="#1d4383" stroke="none">
<path d="M998 1733 l-3 -237 -42 -8 c-120 -20 -209 -114 -243 -255 -6 -29 -14
-53 -16 -53 -2 0 -61 23 -131 51 -71 28 -134 53 -140 56 -10 4 -13 -23 -13
-116 0 -67 -2 -121 -5 -121 -3 0 -33 11 -67 25 -34 14 -65 25 -70 25 -4 0 -8
-52 -8 -115 0 -63 -2 -115 -5 -115 -3 0 -24 9 -46 20 -22 12 -51 25 -64 30
l-25 10 0 -300 0 -300 890 0 890 0 0 300 c0 199 -3 300 -10 300 -6 0 -37 -14
-70 -30 l-60 -30 0 115 c0 63 -4 115 -8 115 -5 0 -36 -11 -70 -25 -34 -14 -66
-25 -72 -25 -6 0 -10 45 -10 121 0 93 -3 120 -12 116 -7 -3 -78 -32 -158 -65
-80 -33 -205 -85 -279 -115 l-133 -54 -126 48 c-70 27 -127 49 -128 49 -6 0
26 101 41 134 47 98 147 148 253 127 30 -6 73 -21 96 -34 49 -27 104 -104 113
-159 6 -38 7 -40 36 -34 17 3 32 8 35 10 10 11 -33 126 -63 171 -48 70 -135
123 -202 125 -22 0 -23 3 -23 110 0 61 1 110 3 110 2 0 58 -22 125 -49 l123
-50 -3 121 -3 121 -130 54 c-71 29 -138 55 -147 59 -16 5 -18 -12 -20 -233z
m-226 -709 l243 -96 240 96 c132 53 244 96 248 96 4 0 7 -157 7 -350 l0 -350
-35 0 -35 0 0 294 0 294 -213 -85 -213 -85 -215 84 -214 85 -3 -294 -2 -293
-35 0 -35 0 0 350 c0 209 4 350 9 350 5 0 119 -43 253 -96z m-398 -79 l36 -15
0 -255 0 -255 -40 0 -40 0 0 270 c0 149 2 270 4 270 2 0 20 -7 40 -15z m1316
-255 l0 -270 -40 0 -40 0 0 258 0 258 28 11 c54 22 52 33 52 -257z m-1465 83
l35 -17 0 -168 0 -168 -40 0 -40 0 0 185 c0 102 2 185 5 185 2 0 20 -8 40 -17z
m1615 -168 l0 -185 -40 0 -40 0 0 168 0 168 33 17 c17 8 35 16 40 16 4 1 7
-82 7 -184z m-955 115 c133 -49 135 -49 172 -33 21 8 80 31 131 49 l92 34 0
-175 0 -175 -270 0 -270 0 0 175 c0 96 2 175 5 175 3 0 66 -22 140 -50z"/>
</g>
</svg>
